<svg xmlns="http://www.w3.org/2000/svg" viewBox="0 0 249 69"><path d="M8.98 60.85v7h-9V0h8v30.92h.44a29.75 29.75 0 0 1 5.71-4.62 16.69 16.69 0 0 1 8.71-2.19 19.54 19.54 0 0 1 8.23 1.7 19.18 19.18 0 0 1 6.41 4.76 21.41 21.41 0 0 1 4.13 7.14 25.88 25.88 0 0 1 1.46 8.75 26.29 26.29 0 0 1-1.46 8.8 21.83 21.83 0 0 1-4.09 7.18 18.89 18.89 0 0 1-6.4 4.8A19.74 19.74 0 0 1 22.69 69a17.83 17.83 0 0 1-8.28-2 14.77 14.77 0 0 1-6.31-6.13zm26.1-14.36a19.29 19.29 0 0 0-.86-5.72 14.83 14.83 0 0 0-2.53-4.91 12.27 12.27 0 0 0-4.22-3.39 12.92 12.92 0 0 0-5.88-1.25A12.34 12.34 0 0 0 16 32.47a13.29 13.29 0 0 0-4.31 3.39 15.89 15.89 0 0 0-2.77 4.91 17.68 17.68 0 0 0 0 11.61 15.25 15.25 0 0 0 2.77 4.87A13.73 13.73 0 0 0 16 60.6a12.46 12.46 0 0 0 5.59 1.24 12.36 12.36 0 0 0 10.1-4.73 14.74 14.74 0 0 0 2.56-4.91 19.22 19.22 0 0 0 .83-5.71zM63.92 9.99a5.12 5.12 0 0 1-1.57 3.85 5.18 5.18 0 0 1-3.77 1.52 5 5 0 0 1-3.72-1.56 5.26 5.26 0 0 1-1.52-3.81 5.33 5.33 0 0 1 1.52-3.89 5 5 0 0 1 3.72-1.57 5.11 5.11 0 0 1 3.77 1.57 5.25 5.25 0 0 1 1.57 3.89zm-1.08 57.85h-8V24.92h8zM101.75 40.82c0-3.11-1-5.42-2.84-6.91a11.78 11.78 0 0 0-7.54-2.25 16.65 16.65 0 0 0-6.68 1.37 16.94 16.94 0 0 0-5.28 3.47l-4.44-5.28a22.48 22.48 0 0 1 7.58-4.57 27.13 27.13 0 0 1 9.62-1.68 21.89 21.89 0 0 1 7.85 1.28 14.78 14.78 0 0 1 5.45 3.48 14.18 14.18 0 0 1 3.22 5.19 19.05 19.05 0 0 1 1 6.42v18.22c0 1.41 0 2.9.13 4.45a22.54 22.54 0 0 0 .49 3.83h-7.54a26.07 26.07 0 0 1-.71-6h-.26a16.26 16.26 0 0 1-5.81 5.2 17.57 17.57 0 0 1-8.25 1.88 21.85 21.85 0 0 1-5.19-.66 15.1 15.1 0 0 1-4.92-2.15 12.29 12.29 0 0 1-3.68-4 11.8 11.8 0 0 1-1.46-6.08 10.59 10.59 0 0 1 2.57-7.52 16.28 16.28 0 0 1 6.74-4.23 38.53 38.53 0 0 1 9.4-1.89q5.22-.47 10.55-.47zm-2 7.07q-3 0-6.18.27a26.7 26.7 0 0 0-5.81 1.07 10.74 10.74 0 0 0-4.3 2.42 5.63 5.63 0 0 0-1.68 4.27 6.19 6.19 0 0 0 .72 3.13 6.31 6.31 0 0 0 1.92 2.06 7.52 7.52 0 0 0 2.65 1.12 14 14 0 0 0 3 .31q5.63 0 8.66-3.53a13.22 13.22 0 0 0 3-8.91v-2.18zM129.94 24.92c.12 1.08.2 2.29.26 3.63s.09 2.46.09 3.36H130a12.55 12.55 0 0 1 2.12-3.22 15 15 0 0 1 3.07-2.63 14.53 14.53 0 0 1 3.8-1.77 14.76 14.76 0 0 1 4.32-.64 15.27 15.27 0 0 1 6.83 1.41 14 14 0 0 1 4.75 3.76 15.63 15.63 0 0 1 2.8 5.55 24.91 24.91 0 0 1 .9 6.81v26.66h-8V44.28a29.76 29.76 0 0 0-.38-4.92 12.15 12.15 0 0 0-1.4-4.12 7.78 7.78 0 0 0-2.8-2.87 8.85 8.85 0 0 0-4.58-1.07 9.48 9.48 0 0 0-7.77 3.8q-3 3.81-3 10.17v22.57h-8V34.07c0-1.13 0-2.59-.08-4.38s-.14-3.37-.26-4.75zM200.88 36.05a10 10 0 0 0-3.84-3.45 11.35 11.35 0 0 0-5.46-1.38 12 12 0 0 0-5.59 1.25 13 13 0 0 0-4.14 3.36 14.75 14.75 0 0 0-2.6 4.88 19.27 19.27 0 0 0 0 11.64 14.75 14.75 0 0 0 2.6 4.88 12.57 12.57 0 0 0 4.18 3.36 13.21 13.21 0 0 0 11.22 0 11.49 11.49 0 0 0 4.14-3.4l5.38 5.1a17.44 17.44 0 0 1-6.4 4.88 20.72 20.72 0 0 1-8.68 1.75 22.89 22.89 0 0 1-8.66-1.61 20.54 20.54 0 0 1-6.87-4.52 21 21 0 0 1-4.56-7 24.47 24.47 0 0 1-1.67-9.23 24.73 24.73 0 0 1 1.62-9.13 20.78 20.78 0 0 1 4.53-7.08 20.12 20.12 0 0 1 6.87-4.57 22.61 22.61 0 0 1 8.57-1.61 21.61 21.61 0 0 1 8.46 1.75 15.63 15.63 0 0 1 6.7 5.2zM240.4 40.82c0-3.11-1-5.42-2.84-6.91a11.77 11.77 0 0 0-7.53-2.25 16.66 16.66 0 0 0-6.7 1.37 16.89 16.89 0 0 0-5.27 3.47l-4.44-5.28a22.48 22.48 0 0 1 7.58-4.57 27.21 27.21 0 0 1 9.62-1.68 21.89 21.89 0 0 1 7.87 1.28 14.7 14.7 0 0 1 5.45 3.48 14.21 14.21 0 0 1 3.2 5.19 19 19 0 0 1 1.06 6.42v18.22c0 1.41 0 2.9.13 4.45a22.54 22.54 0 0 0 .49 3.83h-7.54a26.06 26.06 0 0 1-.7-6h-.27a16.18 16.18 0 0 1-5.81 5.2 17.55 17.55 0 0 1-8.31 1.88 22 22 0 0 1-5.19-.66 15.1 15.1 0 0 1-4.92-2.15 12.4 12.4 0 0 1-3.68-4 11.8 11.8 0 0 1-1.46-6.08 10.64 10.64 0 0 1 2.55-7.51 16.35 16.35 0 0 1 6.74-4.23 38.53 38.53 0 0 1 9.4-1.89c3.49-.29 7-.44 10.55-.44zm-2 7.07c-2 0-4.06.09-6.19.27a26.6 26.6 0 0 0-5.8 1.07 10.78 10.78 0 0 0-4.31 2.42 5.63 5.63 0 0 0-1.71 4.3 5.85 5.85 0 0 0 2.65 5.19 7.4 7.4 0 0 0 2.65 1.12 14.11 14.11 0 0 0 3 .31q5.63 0 8.66-3.53a13.22 13.22 0 0 0 3-8.91v-2.21z" fill="#0231cd"/></svg>